<svg xmlns="http://www.w3.org/2000/svg" width="50.907" height="50.891" viewBox="0 0 50.907 50.891">
  <g id="asset-management" transform="translate(-712.108 -441.088)">
    <path id="Path_23" data-name="Path 23" d="M723.153,486.875v-5.854h1.637v5.747h25.487c0-2.417,0-4.8,0-7.181,0-2.756-.01-5.511.005-8.267,0-.773-.165-1.371-1.08-1.374-3.247-.009-6.494,0-9.978,0,0,1.52,0,2.942,0,4.364-.011,3.37-1.6,4.948-5,4.956-1.032,0-2.065,0-3.268,0,.21,1.276.446,2.41.558,3.556.042.432-.071,1.1-.355,1.281s-.946-.019-1.291-.265c-1.8-1.285-3.527-2.674-5.338-3.943a3.6,3.6,0,0,0-1.837-.6c-1.985-.075-3.974-.012-5.962-.033a4.282,4.282,0,0,1-4.605-4.559q-.048-5.623,0-11.248c.025-2.825,1.765-4.509,4.619-4.515q8.945-.018,17.889,0c2.885.006,4.55,1.656,4.585,4.516.019,1.527,0,3.054,0,4.669H741.8a26.349,26.349,0,0,0-.045-3.583,8.663,8.663,0,0,0-1.161-2.255c2.27,0,4.019.012,5.768,0,2.149-.019,3.065-.914,3.072-3.05q.024-6.708,0-13.417c-.009-2.04-.944-2.973-3.012-2.98q-8.877-.03-17.753,0c-2.059.008-2.973.947-2.985,3-.019,3.253-.005,6.505-.006,9.758v1.554H724v-3.524c0-2.711-.022-5.421.007-8.131a4.153,4.153,0,0,1,4.22-4.364q9.35-.091,18.7,0a4.148,4.148,0,0,1,4.169,4.415c.025,4.517.007,9.035.008,13.552v1.433c1.377.069,3.065-.226,2.419,2.306,1.328-.438,2.406-.8,3.491-1.149,1.367-.434,1.686-.2,1.7,1.274q.018,2.71,0,5.421c-.01,1.515-.323,1.724-1.816,1.249-1.018-.324-2.035-.655-3.061-.986-.444,1.973-.444,1.973-1.835,2.286V486.7a2,2,0,0,0,.291.138c.807.208,2.023-.479,2.2,1.08.242,2.121-.347,3.469-1.842,3.893a5.97,5.97,0,0,1-1.6.156q-13.485.013-26.969.005c-2.77,0-3.963-1.417-3.407-4.161.075-.369.637-.739,1.055-.909A4.293,4.293,0,0,1,723.153,486.875Zm6.391-5.38c-.152-.986-.238-1.558-.33-2.129-.246-1.524-.048-1.774,1.463-1.788,1.218-.011,2.437.006,3.656,0,2.313-.019,3.22-.91,3.224-3.18q.009-5.349,0-10.7c-.005-2.139-.923-3.088-3.026-3.092q-8.8-.017-17.6,0c-2.144,0-3.064.9-3.078,3.038q-.035,5.416,0,10.832c.012,2.2.922,3.081,3.165,3.1,2.031.015,4.065-.063,6.091.038a4.673,4.673,0,0,1,2.2.748C726.658,479.234,727.905,480.265,729.544,481.495Zm23.119,7.134h-30.21c-.344,1.25.2,1.636,1.3,1.635q13.807-.016,27.615,0C752.463,490.265,753,489.879,752.663,488.629Zm-9.1-20.5c2.854.375,5.677-.585,8.27,1.011v-7.027c-.735.215-1.453.221-1.851.58a5.364,5.364,0,0,1-3.98,1.335c-.794-.023-1.59,0-2.44,0Zm13.389-.274v-4.318c-.8.254-1.463.494-2.146.679-.75.2-1.205.484-1.218,1.436-.012,1,.427,1.326,1.258,1.527C755.533,467.344,756.2,467.607,756.953,467.854Z" transform="translate(0)" fill="#fff"/>
    <path id="Path_24" data-name="Path 24" d="M785.782,469.855V459.724c-1.07,0-2-.011-2.933,0-.9.013-1.325-.377-1.283-1.31s.009-1.871.009-2.875h-5.084v10.872H774.8c0-1.257,0-2.462,0-3.668,0-2.527.026-5.054-.012-7.58-.015-.966.306-1.388,1.323-1.381q7.106.046,14.212,0c.962-.006,1.393.3,1.386,1.319q-.046,6.7,0,13.4c.006.98-.345,1.4-1.346,1.362C788.883,469.819,787.4,469.855,785.782,469.855Zm-1.225-14.348a6.242,6.242,0,0,0,.705.771,5.54,5.54,0,0,1,2.282,5.506c-.193,2.084-.041,4.2-.041,6.32h2.416v-12.6Z" transform="translate(-45.688 -9.256)" fill="#fff"/>
    <path id="Path_25" data-name="Path 25" d="M863.285,513.231v-1.7c1.581,0,3.1.011,4.617,0,1.993-.019,2.928-.892,2.943-2.867q.046-6.429,0-12.859c-.014-1.967-.945-2.844-2.952-2.873-1.8-.026-3.591-.005-5.453-.005v-1.649c2.223,0,4.39-.151,6.525.043a3.978,3.978,0,0,1,3.585,4.1c.062,4.556.07,9.115-.007,13.67a4.08,4.08,0,0,1-4.023,4.12C866.819,513.306,865.11,513.231,863.285,513.231Z" transform="translate(-109.583 -36.544)" fill="#fff"/>
    <path id="Path_26" data-name="Path 26" d="M800.506,599.456H790.381c-.027-.492-.052-.958-.083-1.544h10.133Z" transform="translate(-56.996 -114.316)" fill="#fff"/>
    <path id="Path_27" data-name="Path 27" d="M818.8,560.239h7.494l.079,1.483H818.8Z" transform="translate(-77.77 -86.854)" fill="#fff"/>
    <path id="Path_28" data-name="Path 28" d="M793.268,494.584v1.561h-5.812v-1.561Z" transform="translate(-54.925 -38.996)" fill="#fff"/>
    <path id="Path_29" data-name="Path 29" d="M821.959,586.865v-1.474h6.609v1.474Z" transform="translate(-80.075 -105.189)" fill="#fff"/>
    <path id="Path_30" data-name="Path 30" d="M787.271,483.813v-1.464h5.816v1.464Z" transform="translate(-54.79 -30.077)" fill="#fff"/>
    <path id="Path_31" data-name="Path 31" d="M819.471,572.936v1.535h-4.095l-.093-1.535Z" transform="translate(-75.209 -96.11)" fill="#fff"/>
    <path id="Path_32" data-name="Path 32" d="M837.662,597.846v1.525h-3.276v-1.525Z" transform="translate(-89.134 -114.268)" fill="#fff"/>
    <path id="Path_33" data-name="Path 33" d="M793.647,585.407v1.446h-3.3c-.022-.47-.042-.9-.067-1.446Z" transform="translate(-56.984 -105.2)" fill="#fff"/>
    <path id="Path_34" data-name="Path 34" d="M839.567,573.132V574.6c-.446.03-.836.071-1.227.077-.354.005-.708-.029-1.17-.05-.042-.459-.081-.885-.136-1.491Z" transform="translate(-91.064 -96.253)" fill="#fff"/>
    <path id="Path_35" data-name="Path 35" d="M787.34,470.912v-1.549l1.555-.077v1.626Z" transform="translate(-54.84 -20.555)" fill="#fff"/>
    <path id="Path_36" data-name="Path 36" d="M765.291,597.8h1.661v1.552h-1.591Z" transform="translate(-38.768 -114.236)" fill="#fff"/>
    <path id="Path_37" data-name="Path 37" d="M809.155,586.854v-1.437h1.59v1.437Z" transform="translate(-70.742 -105.208)" fill="#fff"/>
    <path id="Path_43" data-name="Path 43" d="M739.495,532.8c-1.9,0-3.791.022-5.686-.007a2.524,2.524,0,0,1-2.828-2.849q-.027-3.046,0-6.093c.016-1.9.919-2.841,2.814-2.854,1.016-.007,1.949.062,2.386-1.19.1-.3.806-.506,1.247-.534,1.169-.073,2.347.015,3.518-.038a1.932,1.932,0,0,1,2.188,1.15c.148.33.854.556,1.314.573,2.8.1,3.467.765,3.471,3.6,0,1.8.029,3.611-.01,5.415-.041,1.907-.949,2.791-2.862,2.818C743.2,532.819,741.345,532.8,739.495,532.8Zm-.09-1.688q2.505,0,5.011,0c1.769,0,1.78-.015,1.784-1.848q0-2.235,0-4.469c0-2.12,0-2.089-2.183-2.143-.634-.015-1.7-.109-1.818-.437-.541-1.5-1.694-1.247-2.783-1.219-.7.018-1.895-.047-2.016.261-.692,1.758-2.1,1.437-3.405,1.4-1.012-.027-1.367.43-1.354,1.385.026,1.9.035,3.792,0,5.688-.021,1.072.464,1.423,1.486,1.395C735.883,531.074,737.644,531.11,739.4,531.111Z" transform="translate(-13.748 -56.959)" fill="#fff"/>
    <path id="Path_45" data-name="Path 45" d="M753.188,541.782a3.384,3.384,0,0,1-.006-6.768,3.384,3.384,0,1,1,.006,6.768Zm1.687-3.509a1.61,1.61,0,0,0-1.658-1.561,1.664,1.664,0,0,0-1.678,1.746,1.636,1.636,0,0,0,1.668,1.625A1.676,1.676,0,0,0,754.876,538.273Z" transform="translate(-27.519 -68.467)" fill="#fff"/>
  </g>
</svg>
