<svg xmlns="http://www.w3.org/2000/svg" width="82.836" height="40.518" viewBox="0 0 82.836 40.518">
  <g id="devop" transform="translate(0 0)">
    <path id="Path_60" data-name="Path 60" d="M147.833,408.055c0,2.009.006,3.9-.011,5.786a.878.878,0,0,1-.253.478c-2.536,2.949-5.012,5.955-7.636,8.824a19.806,19.806,0,0,1-14.524,6.61,2.063,2.063,0,0,1-.267-.03l4.084-4.1-4.151-4.026.075-.165c.193-.021.386-.047.579-.061a11.631,11.631,0,0,0,8.239-4.158q3.756-4.343,7.482-8.711a1.175,1.175,0,0,1,1.012-.455C144.229,408.068,146,408.055,147.833,408.055Z" transform="translate(-104.66 -389.338)" fill="#000762"/>
    <path id="Path_61" data-name="Path 61" d="M275.792,282.526c0-1.773-.021-3.351.012-4.927.011-.535-.115-.717-.686-.705-1.58.033-3.162-.006-4.743-.019-.2,0-.4-.022-.737-.041.5-.586.915-1.085,1.338-1.58q3.531-4.123,7.064-8.245a20.158,20.158,0,0,1,13.139-7.195,1,1,0,0,1,.732.146c1.268,1.258,2.5,2.55,3.785,3.873a1.908,1.908,0,0,1-.2.261c-1.249,1.251-2.495,2.506-3.762,3.739a1.9,1.9,0,0,1-.783.454,12.1,12.1,0,0,0-6.273,3.956c-2.732,3.272-5.557,6.468-8.344,9.695C276.2,282.091,276.061,282.235,275.792,282.526Z" transform="translate(-231.16 -259.615)" fill="#000762"/>
    <path id="Path_62" data-name="Path 62" d="M-32.249,280.759c-1.352-1.371-2.641-2.665-3.905-3.983a.877.877,0,0,1-.133-.628,20.108,20.108,0,0,1,17.234-17.606c.853-.114,1.714-.162,2.572-.241l.048.149-4.09,3.984,4.2,4.107-.072.179c-.253.023-.506.049-.76.068A11.868,11.868,0,0,0-27.7,275.612a2.775,2.775,0,0,1-.643,1.157C-29.6,278.1-30.9,279.387-32.249,280.759Z" transform="translate(36.55 -258.302)" fill="#000762"/>
    <path id="Path_63" data-name="Path 63" d="M-38.342,420.726l4.192,4.118,4.228-4.2c.079.689.105,1.245.21,1.786a11.759,11.759,0,0,0,8.9,9.67,2.176,2.176,0,0,1,.891.5c1.332,1.313,2.636,2.655,4,4.035-.137.148-.283.315-.439.472-1.044,1.047-2.1,2.079-3.127,3.144a1.184,1.184,0,0,1-1.1.375,20.153,20.153,0,0,1-17.151-15.695C-38.022,423.6-38.133,422.229-38.342,420.726Z" transform="translate(38.342 -400.365)" fill="#000762"/>
    <path id="Path_64" data-name="Path 64" d="M444.885,437.031c1.485-1.475,2.882-2.871,4.293-4.253a1.246,1.246,0,0,1,.551-.257,11.8,11.8,0,0,0,9.119-10.821c.013-.163.042-.324.071-.546l4.069,4.232,4.1-4.276.256.125c-.15,1.222-.226,2.458-.463,3.662A20.257,20.257,0,0,1,449.953,441a1.6,1.6,0,0,1-1.591-.513C447.272,439.315,446.1,438.224,444.885,437.031Z" transform="translate(-384.514 -400.77)" fill="#000762"/>
    <path id="Path_65" data-name="Path 65" d="M467.255,262.776l-4.216-4.049.1-.218c.685.043,1.372.064,2.054.132a20.164,20.164,0,0,1,17.757,17.589,1.216,1.216,0,0,1-.292.861c-1.189,1.251-2.417,2.465-3.668,3.728-.179-.151-.325-.257-.452-.384-1.209-1.2-2.422-2.406-3.615-3.628a1.849,1.849,0,0,1-.469-.776,11.849,11.849,0,0,0-11.008-9.148c-.1-.007-.2-.02-.355-.035Z" transform="translate(-400.4 -258.484)" fill="#000762"/>
    <path id="Path_66" data-name="Path 66" d="M123.442,278.943c-.855-.984-1.7-1.952-2.537-2.924-1.168-1.355-2.35-2.7-3.493-4.076a11.519,11.519,0,0,0-6-3.721,2.43,2.43,0,0,1-1-.561c-1.332-1.282-2.631-2.6-4.109-4.07.683-.613,1.342-1.178,1.969-1.774s1.224-1.19,1.8-1.823a.988.988,0,0,1,.985-.33,20.378,20.378,0,0,1,13.132,7.238q2.25,2.634,4.508,5.26c.223.258.3.429.039.728-1.7,1.939-3.382,3.9-5.071,5.845C123.615,278.8,123.549,278.845,123.442,278.943Z" transform="translate(-88.237 -259.478)" fill="#000762"/>
    <path id="Path_67" data-name="Path 67" d="M298.292,433.244l5.553-6.424c.95,1.1,1.858,2.145,2.762,3.195,1.072,1.246,2.12,2.514,3.213,3.741a11.623,11.623,0,0,0,8.108,4.037c.166.012.332.02.5.036.037,0,.071.037.165.09l-4.25,4.113,4.192,4.067-.061.185c-1.059-.111-2.13-.159-3.176-.345a19.867,19.867,0,0,1-12.2-7.075C301.543,436.991,299.936,435.164,298.292,433.244Z" transform="translate(-256.235 -405.766)" fill="#000762"/>
  </g>
</svg>
