<svg xmlns="http://www.w3.org/2000/svg" width="55.077" height="56.654" viewBox="0 0 55.077 56.654">
  <g id="domain" transform="translate(-93.212 -181.769)">
    <path id="Path_52" data-name="Path 52" d="M138.752,213.935a36.539,36.539,0,0,0-.2-4.816c.1-.04.222-.092.346-.141a7.275,7.275,0,0,0-1.38-13.946,10.344,10.344,0,0,0-2.022-.08,2.4,2.4,0,0,1-2.379-1.372,7.151,7.151,0,0,0-6.87-4.076,6.019,6.019,0,0,0-1.091.134,2.453,2.453,0,0,1-2.3-.692,8.523,8.523,0,0,0-4.133-2.209,8.746,8.746,0,0,0-10.345,6.207,2.4,2.4,0,0,1-2.78,1.986,7.277,7.277,0,0,0-3,14.058c.106.041.21.085.318.13a36.128,36.128,0,0,0-.2,4.856c-.469-.135-.929-.231-1.361-.4-4.747-1.82-7.565-5.225-8.083-10.3a11.939,11.939,0,0,1,10.149-12.965,1.572,1.572,0,0,0,1.248-.9,13.2,13.2,0,0,1,10.037-7.446,13,13,0,0,1,9.92,2.318,2.489,2.489,0,0,0,1.559.485,11.9,11.9,0,0,1,9.931,4.714,1.882,1.882,0,0,0,1.354.763,12.019,12.019,0,0,1,1.5,23.669A2.021,2.021,0,0,1,138.752,213.935Z" transform="translate(0 0)" fill="#fff"/>
    <path id="Path_53" data-name="Path 53" d="M281.457,433.579c4.59,0,9.18.019,13.769-.013a1.748,1.748,0,0,1,1.859,1.854c-.044,1.72-.011,3.442-.013,5.163a1.632,1.632,0,0,1-1.766,1.754H267.6a1.635,1.635,0,0,1-1.778-1.777c0-1.7.037-3.4-.014-5.094a1.761,1.761,0,0,1,1.883-1.9C272.277,433.6,276.867,433.579,281.457,433.579Zm11.326,4.4h-7.035v2.289h7.035Zm-24.047-.568a1,1,0,1,0-.988-1.018A1,1,0,0,0,268.736,437.415Z" transform="translate(-160.707 -234.46)" fill="#fff"/>
    <path id="Path_54" data-name="Path 54" d="M281.614,582.676h-13.77a1.646,1.646,0,0,1-1.84-1.85q0-2.582,0-5.164a1.622,1.622,0,0,1,1.738-1.743q13.89,0,27.781,0a1.622,1.622,0,0,1,1.736,1.746q0,2.634,0,5.267a1.621,1.621,0,0,1-1.739,1.743Q288.568,582.678,281.614,582.676Zm11.355-4.353h-7.03v2.3h7.03Zm-24.041-2.555a1,1,0,0,0-.993,1.009,1.013,1.013,0,0,0,.991.986,1,1,0,0,0,1.005-1A.984.984,0,0,0,268.928,575.768Z" transform="translate(-160.895 -365.15)" fill="#fff"/>
    <path id="Path_55" data-name="Path 55" d="M281.433,722.79c-4.578,0-9.157-.021-13.735.014a1.76,1.76,0,0,1-1.892-1.892c.049-1.7.012-3.4.014-5.094a1.639,1.639,0,0,1,1.769-1.788H295.3a1.637,1.637,0,0,1,1.776,1.781q0,2.582,0,5.164a1.634,1.634,0,0,1-1.8,1.815Zm4.3-2.053h7.047v-2.289h-7.047Zm-17.986-3.91a1.007,1.007,0,0,0,.959,1.048,1,1,0,1,0-.959-1.048Z" transform="translate(-160.71 -495.613)" fill="#fff"/>
    <path id="Path_56" data-name="Path 56" d="M281.706,865.679v-1.107H271.275v-3.706H281.7v-1.143h2.968v-4.318h3.716V859.7h2.977v1.153H301.8v3.706H291.387v1.121Z" transform="translate(-165.803 -627.256)" fill="#fff"/>
  </g>
</svg>
