<svg id="employee" xmlns="http://www.w3.org/2000/svg" width="63.637" height="58.624" viewBox="0 0 63.637 58.624">
  <path id="Path_74" data-name="Path 74" d="M59.973,520.157a29.745,29.745,0,0,1-8.459-1.011,18.344,18.344,0,0,1-2.333-.944,1.484,1.484,0,0,1-.877-1.518c.04-1.755-.039-3.517.088-5.265a11.427,11.427,0,0,1,22.666-.708,30.4,30.4,0,0,1,.171,4.037c.019.667-.017,1.336,0,2a1.511,1.511,0,0,1-.884,1.471,13.637,13.637,0,0,1-3.9,1.334A33.359,33.359,0,0,1,59.973,520.157Z" transform="translate(-27.916 -461.533)" fill="#fba588"/>
  <path id="Path_75" data-name="Path 75" d="M-174.211,431.829a28.462,28.462,0,0,1-8.1-.927,19.526,19.526,0,0,1-2.61-1.063,1.26,1.26,0,0,1-.776-1.214c.005-1.683-.05-3.37.032-5.049a11.4,11.4,0,0,1,8.7-10.5,11.463,11.463,0,0,1,13.7,7.9.682.682,0,0,1-.215.792,13.668,13.668,0,0,0-4.281,8.893c-.043.48-.162.712-.684.755-1.92.159-3.837.36-5.755.545Z" transform="translate(185.713 -380.905)" fill="#fba588"/>
  <path id="Path_76" data-name="Path 76" d="M297.539,431.812c-1.713-.166-3.746-.367-5.78-.554-.313-.029-.4-.165-.425-.465a13.718,13.718,0,0,0-4.4-9.245.607.607,0,0,1-.185-.717,11.429,11.429,0,0,1,21.941,0,13.51,13.51,0,0,1,.458,3.042c.075,1.491.009,2.989.023,4.484a1.459,1.459,0,0,1-.83,1.408,15.376,15.376,0,0,1-5.695,1.641C301.065,431.594,299.468,431.665,297.539,431.812Z" transform="translate(-245.55 -380.782)" fill="#fba588"/>
  <path id="Path_77" data-name="Path 77" d="M107.615,318.46a7.633,7.633,0,1,1-7.663-7.682A7.671,7.671,0,0,1,107.615,318.46Z" transform="translate(-68.124 -287.823)" fill="#fba588"/>
  <path id="Path_78" data-name="Path 78" d="M-126.184,230.716a7.639,7.639,0,0,1-7.669,7.616,7.679,7.679,0,0,1-7.606-7.693,7.676,7.676,0,0,1,7.7-7.6A7.653,7.653,0,0,1-126.184,230.716Z" transform="translate(145.314 -207.731)" fill="#fba588"/>
  <path id="Path_79" data-name="Path 79" d="M333.672,223.12a7.639,7.639,0,1,1-7.652,7.551A7.641,7.641,0,0,1,333.672,223.12Z" transform="translate(-281.438 -207.802)" fill="#fba588"/>
  <path id="Path_80" data-name="Path 80" d="M233.142,53.67a6.362,6.362,0,1,1-6.357-6.384A6.378,6.378,0,0,1,233.142,53.67Z" transform="translate(-185.035 -47.286)" fill="#fba588"/>
  <path id="Path_81" data-name="Path 81" d="M2.448,53.726a6.355,6.355,0,0,1-6.381,6.351,6.367,6.367,0,0,1-6.335-6.4,6.364,6.364,0,0,1,6.361-6.328A6.358,6.358,0,0,1,2.448,53.726Z" transform="translate(25.553 -47.343)" fill="#fba588"/>
  <path id="Path_82" data-name="Path 82" d="M207.754,224.781a15.269,15.269,0,0,0-4.411,3.507,10.291,10.291,0,0,0-8.186-13.866,8.7,8.7,0,0,1,5.434-5.914,8.555,8.555,0,0,1,7.2.452,10.227,10.227,0,0,0-.035,15.821Z" transform="translate(-161.976 -193.927)" fill="#fba588"/>
  <path id="Path_83" data-name="Path 83" d="M19.054,224.787a10.233,10.233,0,0,0-.151-15.869A8.716,8.716,0,0,1,31.242,214.5a10.185,10.185,0,0,0-7.209,5.161,10.055,10.055,0,0,0-.5,8.83c-.707-.685-1.357-1.4-2.095-2.009S19.868,225.359,19.054,224.787Z" transform="translate(-1.077 -193.959)" fill="#fba588"/>
</svg>
