<svg xmlns="http://www.w3.org/2000/svg" width="48.004" height="34.105" viewBox="0 0 48.004 34.105">
  <g id="hosting" transform="translate(-324.822 -595.988)">
    <path id="Path_16" data-name="Path 16" d="M431.655,611.937c0,3.728.009,7.456,0,11.184-.009,2.692-1.508,4.179-4.22,4.183q-10.119.012-20.238,0c-1.433,0-2.159-.541-2.174-1.577s.717-1.614,2.13-1.615c6.612-.006,13.226-.031,19.838.023,1.181.01,1.5-.334,1.5-1.5q-.076-10.784,0-21.569c.009-1.188-.343-1.621-1.509-1.477a2.65,2.65,0,0,1-1.565-.074,2.49,2.49,0,0,1-1.174-1.5c-.047-.47.612-1.439.977-1.448a13.556,13.556,0,0,1,4.529.422c1.385.46,1.917,1.865,1.914,3.367Q431.647,606.145,431.655,611.937Z" transform="translate(-58.833 -0.412)" fill="#fff"/>
    <path id="Path_17" data-name="Path 17" d="M355.541,595.991q7.184,0,14.368,0c1.571,0,2.281.487,2.3,1.558.023,1.124-.709,1.636-2.363,1.637-9.4,0-18.8.022-28.2-.025-1.183-.006-1.544.333-1.489,1.5.091,1.947.029,3.9.023,5.852,0,1.512-.563,2.274-1.632,2.253-1.031-.021-1.557-.746-1.561-2.185-.007-2.173-.013-4.346,0-6.519A3.753,3.753,0,0,1,341.04,596C345.874,595.981,350.708,595.991,355.541,595.991Z" transform="translate(-8.919)" fill="#fff"/>
    <path id="Path_18" data-name="Path 18" d="M396.985,632.047c0-2-.015-3.992,0-5.988.018-1.832,1.1-2.486,2.712-1.617q5.5,2.967,10.966,5.985c1.662.917,1.68,2.292.035,3.2q-5.467,3.022-10.968,5.982c-1.67.9-2.733.228-2.746-1.709C396.974,635.95,396.985,634,396.985,632.047Zm9.973-.012-6.685-3.656V635.7Z" transform="translate(-52.934 -20.595)" fill="#fff"/>
    <path id="Path_19" data-name="Path 19" d="M327.136,652.026a17.679,17.679,0,0,1,16.9,16.826c.042,1.546-.449,2.3-1.522,2.347s-1.613-.678-1.68-2.213a14.379,14.379,0,0,0-13.794-13.756c-1.562-.063-2.246-.575-2.219-1.663S325.578,651.992,327.136,652.026Z" transform="translate(0 -41.108)" fill="#fff"/>
    <path id="Path_20" data-name="Path 20" d="M338.732,683.8c.025,1.313-.506,2.038-1.52,2.081s-1.587-.638-1.671-1.947a9,9,0,0,0-8.735-8.693c-1.123-.058-1.929-.4-1.951-1.659-.018-1.035.711-1.562,2.034-1.544A12.331,12.331,0,0,1,338.732,683.8Z" transform="translate(-0.024 -55.789)" fill="#fff"/>
    <path id="Path_21" data-name="Path 21" d="M326.882,692.012a7.018,7.018,0,0,1,6.54,6.548c.034,1.082-.351,1.879-1.506,1.949-1.069.064-1.566-.6-1.691-1.641-.275-2.306-1.394-3.431-3.651-3.656-1.109-.111-1.787-.615-1.692-1.763C324.981,692.265,325.833,691.959,326.882,692.012Z" transform="translate(-0.038 -70.438)" fill="#fff"/>
  </g>
</svg>
