<svg xmlns="http://www.w3.org/2000/svg" width="19.634" height="28.554" viewBox="0 0 19.634 28.554">
  <g id="pin" transform="translate(-79.968 0)">
    <path id="Path_57" data-name="Path 57" d="M98.238,4.889A9.69,9.69,0,0,0,90,0c-.146,0-.293,0-.439,0a9.69,9.69,0,0,0-8.234,4.887,9.941,9.941,0,0,0-.13,9.822l7.081,12.96.01.017a1.721,1.721,0,0,0,2.986,0l.01-.017,7.081-12.96a9.941,9.941,0,0,0-.13-9.822Zm-8.453,8.049A4.015,4.015,0,1,1,93.8,8.923,4.02,4.02,0,0,1,89.785,12.938Z" transform="translate(0 0)" fill="#ff6057"/>
  </g>
</svg>
