<svg xmlns="http://www.w3.org/2000/svg" width="62.453" height="34.901" viewBox="0 0 62.453 34.901">
  <g id="streaming" transform="translate(17.685 -215.599)">
    <path id="Path_8" data-name="Path 8" d="M169.168,269.842q3.521,0,7.041,0a7.651,7.651,0,0,1,7.822,7.853q0,4.365,0,8.729a7.648,7.648,0,0,1-7.821,7.854q-7.162.006-14.324,0a7.64,7.64,0,0,1-7.819-7.806q-.01-4.411,0-8.823a7.643,7.643,0,0,1,7.818-7.809Q165.527,269.837,169.168,269.842Zm-.126,21.36h3.617q1.832,0,3.665,0a4.577,4.577,0,0,0,4.628-4.615q.009-4.53,0-9.06a4.575,4.575,0,0,0-4.636-4.606q-7.185,0-14.37,0a4.576,4.576,0,0,0-4.8,4.781q0,4.363,0,8.726A4.574,4.574,0,0,0,161.9,291.2Q165.473,291.206,169.042,291.2Z" transform="translate(-155.177 -49.008)" fill="#fff"/>
    <path id="Path_9" data-name="Path 9" d="M555.532,233.516a30.08,30.08,0,0,1-4.855,16.063,1.6,1.6,0,0,1-2.78.206,1.62,1.62,0,0,1,.072-1.895,25.88,25.88,0,0,0,3.389-7.578,27.157,27.157,0,0,0-3.308-21.979,2.866,2.866,0,0,1-.379-.771,1.545,1.545,0,0,1,.909-1.819,1.5,1.5,0,0,1,1.972.62c.878,1.548,1.79,3.089,2.513,4.711A30.051,30.051,0,0,1,555.532,233.516Z" transform="translate(-510.764 0)" fill="#fff"/>
    <path id="Path_10" data-name="Path 10" d="M-17.685,232.932A30.348,30.348,0,0,1-12.8,216.517a1.623,1.623,0,0,1,1.83-.835,1.587,1.587,0,0,1,.91,2.46,25.878,25.878,0,0,0-2.719,5.414,27.139,27.139,0,0,0,2.625,24.306,1.644,1.644,0,0,1-.233,2.325,1.6,1.6,0,0,1-2.375-.486,30.4,30.4,0,0,1-3.135-6.333A31.013,31.013,0,0,1-17.685,232.932Z" transform="translate(0 -0.026)" fill="#fff"/>
    <path id="Path_11" data-name="Path 11" d="M74.344,264.265a8.443,8.443,0,0,1-.444.989,18.857,18.857,0,0,0-1.473,17.72,23.264,23.264,0,0,0,1.5,2.852,1.631,1.631,0,0,1-.4,2.366,1.583,1.583,0,0,1-2.3-.659q-7.155-12.044.046-24.071a1.544,1.544,0,0,1,1.845-.773A1.719,1.719,0,0,1,74.344,264.265Z" transform="translate(-77.116 -42.48)" fill="#fff"/>
    <path id="Path_12" data-name="Path 12" d="M482.4,275.76a22.045,22.045,0,0,1-3.558,11.836,1.591,1.591,0,0,1-1.754.806,1.616,1.616,0,0,1-.97-2.478,27.016,27.016,0,0,0,1.836-3.649,18.806,18.806,0,0,0-1.732-17,2.518,2.518,0,0,1-.349-.781,1.554,1.554,0,0,1,.956-1.755,1.571,1.571,0,0,1,1.942.626,21.824,21.824,0,0,1,2.95,6.717A23.072,23.072,0,0,1,482.4,275.76Z" transform="translate(-445.911 -42.477)" fill="#fff"/>
    <path id="Path_14" data-name="Path 14" d="M251.109,339.477q0-2.289,0-4.579a1.612,1.612,0,0,1,2.478-1.571q4.6,2.257,9.2,4.525a4.168,4.168,0,0,1,.665.385,1.579,1.579,0,0,1-.279,2.65q-4.849,2.41-9.714,4.789a1.581,1.581,0,0,1-2.35-1.478C251.1,342.625,251.109,341.051,251.109,339.477Zm7.756,0-4.544-2.234v4.473Z" transform="translate(-242.857 -106.153)" fill="#fff"/>
  </g>
</svg>
