<svg xmlns="http://www.w3.org/2000/svg" width="45.65" height="43.157" viewBox="0 0 45.65 43.157">
  <g id="webdesign" transform="translate(-402.424 -534.611)">
    <path id="Path_47" data-name="Path 47" d="M431.944,573.817a24.809,24.809,0,0,1-1.625,2.294,1.641,1.641,0,0,1-1.1.276q-10.592.023-21.183.011h-1.312v22.062h40.313V576.444h-6.919c1.019-1.36,1.675-3.047,3.851-2.7a23.721,23.721,0,0,0,3.679.043c1.515,0,2.049.546,2.053,2.1q.007,2.763,0,5.526-.009,10.131-.023,20.262c0,1.71-.417,2.142-2.1,2.143q-20.723.012-41.446,0c-1.622,0-2.073-.456-2.075-2.064q-.013-12.894,0-25.788c0-1.694.5-2.185,2.2-2.186q12.434-.009,24.867,0C431.322,573.782,431.524,573.8,431.944,573.817Z" transform="translate(-1.627 -32.366)" fill="#fff"/>
    <path id="Path_48" data-name="Path 48" d="M519.99,543.634a8.741,8.741,0,0,1-1,2.019c-2.851,3.254-5.758,6.459-8.664,9.664-2.4,2.651-4.858,5.254-7.23,7.932-.766.864-1.213.261-1.751-.161-.511-.4-1.01-.7-.41-1.537,4.4-6.108,8.725-12.264,13.115-18.376a7.866,7.866,0,0,1,1.944-1.887A2.557,2.557,0,0,1,519.99,543.634Zm-4.559-.352,1.91-1.736-.1-.231-2.617,1.261Z" transform="translate(-78.46 -6.239)" fill="#fff"/>
    <path id="Path_49" data-name="Path 49" d="M495.6,734.672H482.031a2.84,2.84,0,0,1,.426-.509,3.6,3.6,0,0,0,1.585-2.943c.042-.777.393-.937,1.1-.927,2.52.038,5.042.013,7.563.016.433,0,.93-.1.968.581A5,5,0,0,0,495.6,734.672Z" transform="translate(-63.646 -156.905)" fill="#fff"/>
    <path id="Path_50" data-name="Path 50" d="M462.593,654.692c.4-.06.8-.138,1.2-.176a2.341,2.341,0,0,0,2.065-1.578c.219-.533.413-1.079.662-1.6a2.125,2.125,0,0,1,2.655-1.333c1.3.252,2.635,1.488,2.662,2.51a1.615,1.615,0,0,1-1.134,1.535,13.617,13.617,0,0,1-6.592.911c-.507-.028-1.012-.1-1.518-.149Z" transform="translate(-48.183 -92.995)" fill="#fff"/>
  </g>
</svg>
